# xmcd
#
# Track frame offsets: 
#        150
#        14348
#        29381
#        40511
#        55495
#        68418
#        77990
#        96296
#        113734
#        128040
#        137738
#        149708
#        162533
#
# Disc length: 2420 seconds
#
# Revision: 0
# Processed by: cddbd v1.5.2PL0 Copyright (c) Steve Scherf et al.
# Submitted via: ExactAudioCopy v0.99pb4
#
DISCID=b409720d
DTITLE=Julio Cobelli - Interpreta A Alfredo Zitarrosa
DYEAR=2007
DGENRE=Folklore
TTITLE0=El Violín De Becho
TTITLE1=Que Pena
TTITLE2=Mire Amigo
TTITLE3=La Canción y El Poema
TTITLE4=A José Artigas
TTITLE5=Mariposa Negra
TTITLE6=Dulce Juanita
TTITLE7=Zamba Por Vos
TTITLE8=Stefanie
TTITLE9=Pa'l Que Se Va
TTITLE10=Milonga De Ojos Dorados
TTITLE11=Doña Soledad
TTITLE12=Adagio En Mi Pais
EXTD=
EXTT0=
EXTT1=
EXTT2=
EXTT3=
EXTT4=
EXTT5=
EXTT6=
EXTT7=
EXTT8=
EXTT9=
EXTT10=
EXTT11=
EXTT12=
PLAYORDER=
